<?xml version="1.0" encoding="utf-8"?>
<!-- Generator: Adobe Illustrator 24.3.0, SVG Export Plug-In . SVG Version: 6.00 Build 0)  -->
<svg version="1.1" id="Layer_1" xmlns="http://www.w3.org/2000/svg" xmlns:xlink="http://www.w3.org/1999/xlink" x="0px" y="0px"
	 viewBox="0 0 584.9 139" style="enable-background:new 0 0 584.9 139;" xml:space="preserve">
<style type="text/css">
	.st0{fill:#2879BD;}
	.st1{fill:#FFFFFF;}
	.st2{fill:#2879BD;stroke:#2879BD;stroke-miterlimit:10;}
</style>
<g>
	<circle class="st0" cx="69.5" cy="69.5" r="69.5"/>
	<g>
		<path class="st1" d="M82,57C92.5,67.6,92.4,84.5,82,94.9c0,0,0,0-0.1,0.1l-11.9,11.9c-10.5,10.5-27.5,10.5-38,0
			c-10.5-10.5-10.5-27.5,0-38l6.6-6.6c1.7-1.7,4.7-0.6,4.8,1.9c0.1,3.1,0.7,6.3,1.7,9.3c0.4,1,0.1,2.2-0.7,2.9l-2.3,2.3
			c-5,5-5.1,13-0.2,18c5,5.1,13.1,5.1,18.1,0.1L72,85c5-5,5-13,0-18c-0.7-0.7-1.3-1.2-1.8-1.5c-0.7-0.5-1.2-1.3-1.2-2.2
			c-0.1-1.9,0.6-3.8,2.1-5.3l3.7-3.7c1-1,2.5-1.1,3.6-0.3C79.6,54.9,80.8,55.9,82,57L82,57z M106.9,32.1c-10.5-10.5-27.5-10.5-38,0
			L57,44c0,0,0,0-0.1,0.1C46.6,54.4,46.4,71.4,57,82c1.1,1.1,2.3,2.1,3.6,3c1.1,0.8,2.7,0.7,3.6-0.3L68,81c1.5-1.5,2.1-3.4,2.1-5.3
			c0-0.9-0.5-1.7-1.2-2.2c-0.5-0.4-1.2-0.9-1.8-1.5c-5-5-5-13,0-18l11.9-11.9c5-5,13.1-5,18.1,0.1c4.9,5,4.8,13.1-0.2,18l-2.3,2.3
			c-0.8,0.8-1,1.9-0.7,2.9c1,3,1.6,6.2,1.7,9.3c0.1,2.5,3.1,3.6,4.8,1.9l6.6-6.6C117.4,59.6,117.4,42.6,106.9,32.1L106.9,32.1z"/>
	</g>
</g>
<g>
	<g>
		<path class="st2" d="M165.1,22.3h9.9c11.6,0,18.2,6.7,18.2,19.3c0,12.7-6.6,19.6-17.9,19.6h-10.2V22.3z M174.6,56.4
			c8.1,0,12.4-5.1,12.4-14.8c0-9.7-4.3-14.4-12.4-14.4H171v29.2L174.6,56.4L174.6,56.4z"/>
		<path class="st2" d="M202.2,22.3h24.5v5h-18.6v11h15.7v5h-15.7v12.8h19.1v5h-25.1L202.2,22.3L202.2,22.3z"/>
		<path class="st2" d="M233.5,22.3h6.4l5.8,20.3c1.3,4.5,2.2,8.3,3.6,12.7h0.2c1.4-4.4,2.3-8.2,3.6-12.7l5.8-20.3h6.1l-12.2,38.9h-7
			L233.5,22.3z"/>
	</g>
	<g>
		<path class="st2" d="M164.6,101.2V77h6v24.4c0,7.1,3,10,7.4,10c4.4,0,7.5-2.8,7.5-10V77h5.8v24.1c0,10.9-5.2,15.5-13.3,15.5
			C169.9,116.6,164.6,112,164.6,101.2z"/>
		<path class="st2" d="M201.2,77h12.6c8,0,14,2.9,14,11.3c0,8.1-6,11.8-14,11.8h-6.6v15.8h-6V77z M213.1,95.3c5.7,0,8.8-2.4,8.8-7
			c0-4.8-3.1-6.5-8.8-6.5h-5.9v13.5H213.1z M217.1,95.1l12,20.8h-6.7l-9.8-17.4L217.1,95.1z"/>
		<path class="st2" d="M239,77h5.9v33.9h18.7v5H239L239,77L239,77z"/>
		<path class="st2" d="M306.5,110.9l3.5-4.1c3,2.8,6.9,4.6,11.1,4.6c4.9,0,7.7-2.3,7.7-5.4c0-3.8-2.8-4.9-6.7-6.5l-5.5-2.4
			c-4-1.6-8.3-4.4-8.3-10.2c0-6.1,5.5-10.6,13.1-10.6c4.8,0,9.2,1.9,12.2,4.9l-3.1,3.8c-2.6-2.2-5.4-3.5-9.4-3.5
			c-4.1,0-6.8,1.9-6.8,5.1c0,3.4,3.4,4.6,6.8,5.9l5.3,2.3c4.9,1.9,8.5,4.7,8.5,10.4c0,6.2-5.3,11.3-14.1,11.3
			C315.2,116.6,310.1,114.5,306.5,110.9z"/>
		<path class="st2" d="M343.6,73.8h5.9V85l-0.4,6.5h0.2c2.7-3,6.1-5.3,10.5-5.3c6.8,0,9.9,4.2,9.9,11.7v18h-5.9V98.7
			c0-5.1-1.7-7.4-6-7.4c-3.2,0-5.3,1.6-8.3,4.6v20h-5.9L343.6,73.8L343.6,73.8z"/>
		<path class="st2" d="M377.4,101.5c0-9.7,6.8-15.3,14.5-15.3c7.6,0,14.5,5.6,14.5,15.3c0,9.6-6.8,15.2-14.5,15.2
			C384.2,116.6,377.4,111.1,377.4,101.5z M400.3,101.5c0-6.3-3.3-10.4-8.4-10.4s-8.4,4.2-8.4,10.4c0,6.2,3.3,10.3,8.4,10.3
			S400.3,107.7,400.3,101.5z"/>
		<path class="st2" d="M417.8,86.9h4.9l0.5,6.7h0.1c3-4.7,7.5-7.4,12.6-7.4c2.2,0,3.9,0.3,5.7,1.2l-1.3,5c-2-0.6-3.1-0.9-5.3-0.9
			c-4.2,0-8.2,2.1-11.4,8v16.5h-5.9L417.8,86.9L417.8,86.9z"/>
		<path class="st2" d="M457.1,104.4V91.6h-8v-4.4l8.2-0.3l0.8-9.2h4.9v9.2h13.7v4.7H463v12.8c0,5,1.8,7.4,7,7.4
			c2.6,0,4.6-0.5,6.6-1.2l1.2,4.3c-2.6,0.9-5.5,1.7-9.2,1.7C460,116.6,457.1,111.7,457.1,104.4z"/>
		<path class="st2" d="M486.2,86.9h4.8l0.5,4.6h0.2c2.9-3,6.2-5.3,10.7-5.3c6.8,0,9.9,4.2,9.9,11.7v18h-5.9V98.7
			c0-5.1-1.7-7.4-6-7.4c-3.2,0-5.3,1.6-8.3,4.6v20h-5.9L486.2,86.9L486.2,86.9z"/>
		<path class="st2" d="M520.5,101.4c0-9.5,7.1-15.2,14.9-15.2c8.5,0,13.4,5.6,13.4,13.7c0,1.3-0.2,2.5-0.3,3.2h-23.9v-4.3h20.2
			l-1.3,1.4c0-6.3-3-9.4-8-9.4c-5.1,0-9.2,3.8-9.2,10.6c0,7.1,4.5,10.6,10.7,10.6c3.2,0,5.9-1,8.5-2.6l2.1,3.7
			c-3,2-6.8,3.4-11.3,3.4C527.4,116.6,520.5,111,520.5,101.4z"/>
		<path class="st2" d="M560.4,86.9h4.9l0.5,6.7h0.1c3-4.7,7.5-7.4,12.6-7.4c2.2,0,3.9,0.3,5.7,1.2l-1.3,5c-2-0.6-3.1-0.9-5.3-0.9
			c-4.2,0-8.2,2.1-11.4,8v16.5h-5.9L560.4,86.9L560.4,86.9z"/>
	</g>
</g>
</svg>
