<?xml version="1.0" encoding="iso-8859-1"?>
<!-- Generator: Adobe Illustrator 24.3.0, SVG Export Plug-In . SVG Version: 6.00 Build 0)  -->
<svg version="1.1" id="Layer_1" xmlns="http://www.w3.org/2000/svg" xmlns:xlink="http://www.w3.org/1999/xlink" x="0px" y="0px"
	 viewBox="0 0 585.613 150" style="enable-background:new 0 0 585.613 150;" xml:space="preserve">
<g>
	<path style="fill:#2879BD;" d="M95.687,54.314c17.504,17.522,17.264,45.615,0.105,62.868c-0.032,0.035-0.07,0.073-0.105,0.108
		L76,136.978c-17.364,17.364-45.615,17.362-62.977,0c-17.364-17.361-17.364-45.615,0-62.977l10.871-10.871
		c2.883-2.883,7.847-0.967,7.996,3.107c0.19,5.192,1.121,10.408,2.839,15.446c0.582,1.706,0.166,3.592-1.108,4.867l-3.834,3.834
		c-8.211,8.211-8.468,21.58-0.338,29.871c8.21,8.373,21.705,8.423,29.978,0.149l19.688-19.685c8.259-8.259,8.225-21.609,0-29.833
		c-1.084-1.082-2.176-1.923-3.03-2.51c-1.224-0.84-1.978-2.21-2.035-3.693c-0.116-3.096,0.981-6.286,3.427-8.732l6.168-6.168
		c1.617-1.617,4.155-1.816,6.03-0.507C91.823,50.776,93.835,52.461,95.687,54.314L95.687,54.314z M136.977,13.022
		C119.615-4.34,91.365-4.342,74,13.022L54.313,32.71c-0.035,0.035-0.073,0.073-0.105,0.108
		c-17.158,17.254-17.399,45.346,0.105,62.868c1.852,1.852,3.864,3.538,6.012,5.038c1.876,1.309,4.413,1.11,6.03-0.507l6.168-6.168
		c2.446-2.446,3.543-5.636,3.427-8.732c-0.057-1.483-0.811-2.853-2.035-3.693c-0.853-0.587-1.945-1.428-3.03-2.51
		c-8.225-8.225-8.259-21.574,0-29.833l19.688-19.685c8.273-8.273,21.768-8.223,29.978,0.149c8.13,8.291,7.873,21.66-0.338,29.871
		l-3.834,3.834c-1.274,1.274-1.69,3.161-1.108,4.867c1.718,5.037,2.649,10.254,2.839,15.446c0.149,4.074,5.113,5.99,7.996,3.107
		l10.871-10.871C154.341,58.638,154.341,30.384,136.977,13.022L136.977,13.022z"/>
</g>
<g>
	<g>
		<path style="fill:#2879BD;stroke:#2879BD;stroke-miterlimit:10;" d="M166.33,55.675h9.903c11.583,0,18.207,6.675,18.207,19.278
			c0,12.651-6.624,19.634-17.903,19.634H166.33V55.675z M175.843,89.722c8.121,0,12.44-5.061,12.44-14.769
			c0-9.66-4.319-14.413-12.44-14.413h-3.546v29.181H175.843z"/>
		<path style="fill:#2879BD;stroke:#2879BD;stroke-miterlimit:10;" d="M203.505,55.675h24.523v5.029h-18.556v11.038h15.696v5.028
			h-15.696v12.788h19.15v5.029h-25.117V55.675z"/>
		<path style="fill:#2879BD;stroke:#2879BD;stroke-miterlimit:10;" d="M234.785,55.675h6.368l5.828,20.257
			c1.311,4.486,2.218,8.274,3.577,12.724h0.237c1.36-4.449,2.325-8.237,3.577-12.724l5.807-20.257h6.107l-12.181,38.912h-7.043
			L234.785,55.675z"/>
	</g>
	<g>
		<path style="fill:#2879BD;stroke:#2879BD;stroke-miterlimit:10;" d="M165.877,134.507v-24.131h6.016v24.449
			c0,7.146,3.04,9.957,7.419,9.957c4.428,0,7.538-2.812,7.538-9.957v-24.449h5.755v24.131c0,10.883-5.222,15.493-13.293,15.493
			C171.192,150,165.877,145.39,165.877,134.507z"/>
		<path style="fill:#2879BD;stroke:#2879BD;stroke-miterlimit:10;" d="M202.491,110.376h12.591c7.98,0,13.999,2.852,13.999,11.27
			c0,8.072-6.019,11.837-13.999,11.837h-6.575v15.805h-6.016V110.376z M214.369,128.689c5.684,0,8.789-2.362,8.789-7.043
			c0-4.777-3.105-6.476-8.789-6.476h-5.862v13.519H214.369z M218.393,128.482l12.005,20.806h-6.721l-9.761-17.415L218.393,128.482z"
			/>
		<path style="fill:#2879BD;stroke:#2879BD;stroke-miterlimit:10;" d="M240.252,110.376h5.919v33.883h18.73v5.028h-24.648V110.376z"
			/>
		<path style="fill:#2879BD;stroke:#2879BD;stroke-miterlimit:10;" d="M307.731,144.282l3.504-4.112
			c2.96,2.778,6.889,4.613,11.119,4.613c4.927,0,7.661-2.267,7.661-5.398c0-3.805-2.842-4.86-6.696-6.49l-5.49-2.407
			c-3.973-1.566-8.333-4.444-8.333-10.175c0-6.063,5.458-10.648,13.141-10.648c4.817,0,9.206,1.905,12.225,4.879l-3.08,3.808
			c-2.6-2.181-5.427-3.469-9.4-3.469c-4.094,0-6.847,1.895-6.847,5.078c0,3.378,3.357,4.611,6.785,5.94l5.277,2.325
			c4.88,1.901,8.527,4.745,8.527,10.432c0,6.246-5.273,11.344-14.096,11.344C316.446,150,311.392,147.831,307.731,144.282z"/>
		<path style="fill:#2879BD;stroke:#2879BD;stroke-miterlimit:10;" d="M344.858,107.16h5.919v11.172l-0.353,6.534h0.189
			c2.723-2.965,6.054-5.323,10.499-5.323c6.778,0,9.872,4.173,9.872,11.734v18.011h-5.919v-17.235c0-5.066-1.702-7.411-6.008-7.411
			c-3.158,0-5.286,1.557-8.281,4.626v20.021h-5.919V107.16z"/>
		<path style="fill:#2879BD;stroke:#2879BD;stroke-miterlimit:10;" d="M378.667,134.82c0-9.719,6.811-15.277,14.46-15.277
			c7.65,0,14.46,5.559,14.46,15.277c0,9.622-6.81,15.181-14.46,15.181C385.477,150,378.667,144.442,378.667,134.82z M401.527,134.82
			c0-6.256-3.263-10.412-8.4-10.412s-8.399,4.156-8.399,10.412c0,6.207,3.262,10.315,8.399,10.315S401.527,141.027,401.527,134.82z"
			/>
		<path style="fill:#2879BD;stroke:#2879BD;stroke-miterlimit:10;" d="M419.11,120.255h4.898l0.53,6.733h0.142
			c2.997-4.728,7.468-7.446,12.649-7.446c2.25,0,3.933,0.33,5.692,1.188l-1.295,5.028c-1.976-0.632-3.078-0.929-5.314-0.929
			c-4.16,0-8.171,2.121-11.384,7.981v16.476h-5.919V120.255z"/>
		<path style="fill:#2879BD;stroke:#2879BD;stroke-miterlimit:10;" d="M458.348,137.802V124.98h-8v-4.417l8.233-0.308l0.776-9.203
			h4.909v9.203h13.697v4.725h-13.697v12.838c0,4.991,1.768,7.41,7.02,7.41c2.552,0,4.625-0.513,6.615-1.24l1.203,4.323
			c-2.614,0.906-5.484,1.689-9.187,1.689C461.237,150,458.348,145.088,458.348,137.802z"/>
		<path style="fill:#2879BD;stroke:#2879BD;stroke-miterlimit:10;" d="M487.449,120.255h4.839l0.472,4.628h0.237
			c2.908-2.982,6.214-5.341,10.696-5.341c6.789,0,9.883,4.173,9.883,11.734v18.011h-5.919v-17.235c0-5.066-1.702-7.411-6.008-7.411
			c-3.158,0-5.286,1.557-8.281,4.626v20.021h-5.919V120.255z"/>
		<path style="fill:#2879BD;stroke:#2879BD;stroke-miterlimit:10;" d="M521.733,134.723c0-9.454,7.122-15.181,14.891-15.181
			c8.519,0,13.368,5.596,13.368,13.702c0,1.251-0.152,2.454-0.271,3.215h-23.889v-4.335h20.2l-1.28,1.444
			c0-6.289-3.043-9.443-7.966-9.443c-5.081,0-9.25,3.752-9.25,10.598c0,7.132,4.474,10.646,10.713,10.646
			c3.246,0,5.869-0.98,8.483-2.556l2.07,3.741c-2.984,1.968-6.846,3.446-11.304,3.446C528.692,150,521.733,144.393,521.733,134.723z
			"/>
		<path style="fill:#2879BD;stroke:#2879BD;stroke-miterlimit:10;" d="M561.701,120.255h4.898l0.53,6.733h0.142
			c2.997-4.728,7.468-7.446,12.649-7.446c2.25,0,3.933,0.33,5.692,1.188l-1.295,5.028c-1.976-0.632-3.078-0.929-5.314-0.929
			c-4.16,0-8.171,2.121-11.384,7.981v16.476h-5.919V120.255z"/>
	</g>
</g>
</svg>
